#!OML:ASF E:\emotionWalksFemale\Project 1\Capture day 1\Session 1\Female1.ASF
:FULLY-SPECIFIED
:DEGREES
282
root 9.83948 15.4103 1.90786 -207.098 -82.3565 -145.1
lowerback 14.5768 -0.975859 1.72425
upperback -4.39808 -0.760112 1.94961
thorax -13.1052 -0.404093 1.38138
lowerneck -9.07747 -0.178149 -5.53346
upperneck -4.21984 0.142059 3.78139
head 0.211055 0.109101 2.15054
rclavicle 2.53722e-014 -1.58282e-014
rhumerus -49.482 16.8391 -61.776
rradius 69.2667
rwrist 11.7737
rhand 9.20071 -46.789
rfingers 7.12502
rthumb 34.3679 -433.49
lclavicle 2.53722e-014 -1.58282e-014
lhumerus -33.5132 -12.5245 75.2266
lradius 31.657
lwrist -18.6048
lhand 4.98201 -37.178
lfingers 7.12502
lthumb 30.3528 -9.65515
rfemur -19.0989 6.16073 25.9475
rtibia 41.1129
rfoot -18.4844 -21.2673
rtoes -4.32056
lfemur -22.5315 -0.303743 -24.2512
ltibia 42.1968
lfoot -21.7015 -8.05649
ltoes 0.258617
283
root 9.81249 15.5238 1.88231 -208.785 -83.3287 -143.554
lowerback 14.293 -0.845788 1.67511
upperback -4.56259 -0.647723 1.52039
thorax -13.1273 -0.369133 0.901903
lowerneck -8.71474 -0.778572 -5.8543
upperneck -3.65567 -0.626947 4.47
head 0.376315 -0.260686 2.41631
rclavicle -3.09048e-014 2.3556e-014
rhumerus -50.8699 16.6637 -63.0005
rradius 69.2628
rwrist 12.0003
rhand 9.21584 -46.7081
rfingers 7.12502
rthumb 34.3822 -433.406
lclavicle -3.09048e-014 2.3556e-014
lhumerus -33.2433 -12.7538 74.9672
lradius 31.3726
lwrist -18.9519
lhand 5.64519 -37.245
lfingers 7.12502
lthumb 30.9852 -9.84069
rfemur -18.0116 6.56589 25.7127
rtibia 39.3935
rfoot -17.8699 -21.2348
rtoes -5.95593
lfemur -21.63 -0.563887 -24.4373
ltibia 40.564
lfoot -20.1349 -9.1736
ltoes 6.46363
284
root 9.78213 15.6436 1.8552 -210.896 -84.1456 -141.492
lowerback 13.9234 -0.741556 1.55575
upperback -4.73367 -0.580451 1.15508
thorax -13.1019 -0.347541 0.544507
lowerneck -8.23153 -1.17697 -5.45304
upperneck -3.21982 -1.20526 4.47035
head 0.460971 -0.552001 2.32461
rclavicle -1.38466e-014 -7.95139e-016
rhumerus -52.106 16.2615 -64.4103
rradius 69.0643
rwrist 12.5324
rhand 8.75331 -46.721
rfingers 7.12502
rthumb 33.943 -433.517
lclavicle -1.38466e-014 -7.95139e-016
lhumerus -33.1081 -13.0541 74.6525
lradius 31.2946
lwrist -18.8185
lhand 6.69729 -37.1664
lfingers 7.12502
lthumb 31.9875 -9.95796
rfemur -17.1181 7.25473 25.4744
rtibia 37.6941
rfoot -18.0029 -20.4639
rtoes -4.07175
lfemur -20.8943 -0.95299 -24.4676
ltibia 39.1632
lfoot -18.4426 -8.32124
ltoes -10.4618
285
root 9.7555 15.7492 1.82718 -215.473 -84.871 -136.817
lowerback 13.4331 -0.752566 1.5071
upperback -4.88946 -0.638121 0.973535
thorax -12.9848 -0.381855 0.380528
lowerneck -8.12227 -1.48864 -5.61943
upperneck -2.51205 -1.60915 4.89371
head 0.698913 -0.74292 2.48541
rclavicle 1.02871e-014 -4.37326e-015
rhumerus -52.9708 16.0696 -65.7876
rradius 68.6614
rwrist 12.9632
rhand 8.49124 -46.4713
rfingers 7.12502
rthumb 33.694 -433.323
lclavicle 1.02871e-014 -4.37326e-015
lhumerus -32.9842 -12.9576 74.4164
lradius 31.2197
lwrist -18.5567
lhand 7.19916 -36.7521
lfingers 7.12502
lthumb 32.4652 -9.64059
rfemur -16.4622 8.28714 25.4652
rtibia 36.1094
rfoot -17.9337 -20.4095
rtoes -2.32005
lfemur -20.4486 -1.59905 -24.267
ltibia 38.0123
lfoot -17.3844 -8.19779
ltoes -12.5107
286
root 9.73325 15.8355 1.80081 -222.303 -85.4271 -129.82
lowerback 12.9434 -0.697373 1.56141
upperback -5.03406 -0.578578 0.871501
thorax -12.8545 -0.365905 0.218154
lowerneck -8.01341 -1.83284 -6.04804
upperneck -1.98949 -2.04065 5.41557
head 0.889245 -0.946154 2.7278
rclavicle 2.4699e-014 -5.56597e-015
rhumerus -53.7364 15.9329 -66.9773
rradius 68.1557
rwrist 13.042
rhand 8.41731 -46.107
rfingers 7.12502
rthumb 33.6237 -432.973
lclavicle 2.4699e-014 -5.56597e-015
lhumerus -32.7592 -12.5591 74.4052
lradius 31.1072
lwrist -18.6115
lhand 7.14226 -36.1416
lfingers 7.12502
lthumb 32.4111 -9.01898
rfemur -15.9167 9.60944 25.6538
rtibia 34.6771
rfoot -17.7525 -21.3228
rtoes -1.68845
lfemur -20.2016 -2.37785 -23.9466
ltibia 37.0557
lfoot -16.8618 -7.0396
ltoes -17.3922
287
root 9.71391 15.9131 1.77282 -229.604 -85.8593 -122.564
lowerback 12.7358 -0.50241 1.54024
upperback -5.12449 -0.340555 0.731398
thorax -12.8301 -0.260598 0.0181223
lowerneck -7.55602 -2.29192 -6.41326
upperneck -1.83509 -2.6483 5.9123
head 0.914989 -1.24412 2.94532
rclavicle -8.48562e-015 -7.7526e-015
rhumerus -54.6115 15.491 -68.0764
rradius 67.5858
rwrist 13.0179
rhand 8.11065 -45.8639
rfingers 7.12502
rthumb 33.3322 -432.793
lclavicle -8.48562e-015 -7.7526e-015
lhumerus -32.3789 -12.0511 74.4523
lradius 30.8978
lwrist -19.1094
lhand 7.21352 -35.8697
lfingers 7.12502
lthumb 32.4789 -8.76103
rfemur -15.2652 10.6197 25.8383
rtibia 33.467
rfoot -18.0646 -22.181
rtoes 0.0401279
lfemur -19.7898 -3.24375 -23.6798
ltibia 36.2394
lfoot -16.7821 -5.20145
ltoes -23.8279
288
root 9.69618 15.9752 1.74705 -240.487 -86.3743 -112.297
lowerback 13.1271 -0.327214 1.5344
upperback -5.04479 -0.122969 0.478574
thorax -12.9744 -0.169572 -0.307536
lowerneck -7.06731 -2.84226 -6.58795
upperneck -1.74166 -3.39903 6.39044
head 0.926263 -1.61706 3.11758
rclavicle -6.1996e-015 -3.18055e-015
rhumerus -55.566 14.6286 -69.265
rradius 66.9466
rwrist 13.172
rhand 8.10605 -45.6109
rfingers 7.12502
rthumb 33.3279 -432.541
lclavicle -6.1996e-015 -3.18055e-015
lhumerus -31.7782 -11.6625 74.4067
lradius 30.5425
lwrist -19.6979
lhand 7.54722 -35.7743
lfingers 7.12502
lthumb 32.7964 -8.73135
rfemur -14.1026 11.1217 26.0449
rtibia 32.5001
rfoot -18.4117 -23.2007
rtoes 0.879946
lfemur -18.7562 -4.39684 -23.6181
ltibia 35.4636
lfoot -16.8918 -2.50862
ltoes -30.8597
289
root 9.67598 16.0316 1.7281 -252.674 -86.7181 -99.7772
lowerback 12.4747 -0.283161 1.44244
upperback -5.12415 -0.101749 0.428656
thorax -12.6669 -0.154857 -0.317555
lowerneck -7.06872 -3.20371 -7.00877
upperneck -1.47087 -3.86057 6.83838
head 1.07159 -1.83894 3.33463
rclavicle -5.97596e-015 7.95139e-015
rhumerus -56.0858 14.9925 -70.3157
rradius 66.3691
rwrist 12.3566
rhand 7.84513 -45.6765
rfingers 7.12502
rthumb 33.0798 -432.66
lclavicle -5.97596e-015 7.95139e-015
lhumerus -31.2612 -10.5691 74.4045
lradius 30.2396
lwrist -20.3279
lhand 7.63272 -35.4256
lfingers 7.12502
lthumb 32.8778 -8.39971
rfemur -14.0959 11.4485 26.0793
rtibia 31.6698
rfoot -18.4416 -24.0441
rtoes -0.307461
lfemur -18.7524 -5.35072 -23.5319
ltibia 34.6643
lfoot -16.9443 0.729309
ltoes -34.0336
290
root 9.65598 16.0802 1.71029 -265.131 -86.8117 -87.0723
lowerback 11.9374 -0.284661 1.36548
upperback -5.143 -0.124884 0.470149
thorax -12.3611 -0.157027 -0.225293
lowerneck -7.14429 -3.41489 -7.57343
upperneck -1.24107 -4.10851 7.35525
head 1.21179 -1.95226 3.6132
rclavicle -3.72721e-016 5.56597e-015
rhumerus -56.2831 14.6898 -71.5069
rradius 65.4188
rwrist 12.1992
rhand 6.99625 -45.6342
rfingers 7.12502
rthumb 32.2721 -432.785
lclavicle -3.72721e-016 5.56597e-015
lhumerus -31.0451 -9.26927 74.4993
lradius 30.1214
lwrist -20.795
lhand 7.2423 -34.9795
lfingers 7.12502
lthumb 32.5063 -7.87638
rfemur -14.0533 10.9741 26.1182
rtibia 30.8534
rfoot -18.9171 -23.602
rtoes 0.341792
lfemur -18.6353 -6.117 -23.409
ltibia 33.8159
lfoot -17.0672 4.20304
ltoes -35.5558
291
root 9.63445 16.1257 1.68475 -275.184 -86.7567 -76.7828
lowerback 11.42 -0.0877851 1.24545
upperback -5.2218 0.0945724 0.33811
thorax -12.1325 -0.0505387 -0.35106
lowerneck -6.83067 -3.74442 -7.71871
upperneck -1.21013 -4.56772 7.82845
head 1.22458 -2.18011 3.79169
rclavicle 3.47873e-016 1.19271e-015
rhumerus -56.2365 14.2827 -72.5603
rradius 63.9909
rwrist 11.8293
rhand 6.82638 -45.2819
rfingers 7.12502
rthumb 32.1104 -432.466
lclavicle 3.47873e-016 1.19271e-015
lhumerus -30.9632 -8.75952 74.5878
lradius 30.1269
lwrist -21.0298
lhand 7.09337 -34.8026
lfingers 7.12502
lthumb 32.3646 -7.67048
rfemur -13.9394 10.9256 26.2165
rtibia 29.9853
rfoot -19.6433 -23.0778
rtoes 4.30793
lfemur -18.4835 -6.76316 -23.1937
ltibia 32.9648
lfoot -17.12 6.75726
ltoes -35.9215
